<svg width="20" height="20" viewBox="0 0 20 20" fill="none" xmlns="http://www.w3.org/2000/svg">
<g clip-path="url(#clip0_36_1002)">
<path d="M13.5673 8.93252C13.6255 8.99058 13.6717 9.05954 13.7032 9.13548C13.7347 9.21141 13.7509 9.29281 13.7509 9.37502C13.7509 9.45723 13.7347 9.53863 13.7032 9.61456C13.6717 9.69049 13.6255 9.75946 13.5673 9.81752L9.81731 13.5675C9.75926 13.6257 9.69029 13.6719 9.61436 13.7034C9.53842 13.7349 9.45702 13.7511 9.37481 13.7511C9.2926 13.7511 9.2112 13.7349 9.13527 13.7034C9.05934 13.6719 8.99037 13.6257 8.93231 13.5675L7.05731 11.6925C6.9992 11.6344 6.95311 11.5654 6.92166 11.4895C6.89021 11.4136 6.87402 11.3322 6.87402 11.25C6.87402 11.1678 6.89021 11.0865 6.92166 11.0105C6.95311 10.9346 6.9992 10.8656 7.05731 10.8075C7.17467 10.6902 7.33384 10.6242 7.49981 10.6242C7.58199 10.6242 7.66337 10.6404 7.73929 10.6719C7.81522 10.7033 7.8842 10.7494 7.94231 10.8075L9.37481 12.2413L12.6823 8.93252C12.7404 8.87431 12.8093 8.82814 12.8853 8.79663C12.9612 8.76512 13.0426 8.7489 13.1248 8.7489C13.207 8.7489 13.2884 8.76512 13.3644 8.79663C13.4403 8.82814 13.5093 8.87431 13.5673 8.93252Z" fill="black"/>
<path d="M4.375 0C4.54076 0 4.69973 0.065848 4.81694 0.183058C4.93415 0.300269 5 0.45924 5 0.625V1.25H15V0.625C15 0.45924 15.0658 0.300269 15.1831 0.183058C15.3003 0.065848 15.4592 0 15.625 0C15.7908 0 15.9497 0.065848 16.0669 0.183058C16.1842 0.300269 16.25 0.45924 16.25 0.625V1.25H17.5C18.163 1.25 18.7989 1.51339 19.2678 1.98223C19.7366 2.45107 20 3.08696 20 3.75V17.5C20 18.163 19.7366 18.7989 19.2678 19.2678C18.7989 19.7366 18.163 20 17.5 20H2.5C1.83696 20 1.20107 19.7366 0.732233 19.2678C0.263392 18.7989 0 18.163 0 17.5V3.75C0 3.08696 0.263392 2.45107 0.732233 1.98223C1.20107 1.51339 1.83696 1.25 2.5 1.25H3.75V0.625C3.75 0.45924 3.81585 0.300269 3.93306 0.183058C4.05027 0.065848 4.20924 0 4.375 0ZM1.25 5V17.5C1.25 17.8315 1.3817 18.1495 1.61612 18.3839C1.85054 18.6183 2.16848 18.75 2.5 18.75H17.5C17.8315 18.75 18.1495 18.6183 18.3839 18.3839C18.6183 18.1495 18.75 17.8315 18.75 17.5V5H1.25Z" fill="black"/>
</g>
<defs>
<clipPath id="clip0_36_1002">
<rect width="20" height="20" fill="white"/>
</clipPath>
</defs>
</svg>
